<svg id="Layer_1" data-name="Layer 1" xmlns="http://www.w3.org/2000/svg" viewBox="0 0 1124.85 1188.87"><defs><style>.cls-1{fill:#0c2341;}.cls-2{fill:none;stroke:#0c2341;stroke-miterlimit:10;stroke-width:45.58px;}</style></defs><path class="cls-1" d="M491.69,703H441.58l.36-14.47,1.63-141.83q.54-14.48-3.8-21.17l-32.92,10.31-8.51-23.7,71.46-31.48h7.78l11,18.64-.55,11.58q-.54,11.76-.54,15.73l.72,146.72A137.69,137.69,0,0,0,491.69,703Z"/><path class="cls-1" d="M550,538.44q12.22-26.49,35.55-41.79t54.09-15.28a85.88,85.88,0,0,1,34.11,6.69,78.21,78.21,0,0,1,27.49,19.81Q713.12,521,719.82,542t6.69,47.94q0,32.94-11.85,59.43A100.05,100.05,0,0,1,679,692q-23.79,16.19-55.63,16.19a82.94,82.94,0,0,1-32.56-6.33,80,80,0,0,1-27.14-19.18q-12.12-12.84-19-34.46t-6.88-49.84Q537.82,564.94,550,538.44ZM663.64,535q-14.92-26.86-37.53-26.87-17.19,0-29,22.16t-12.21,52.92q.54,29.13,6.87,52.19t17.64,36.36q11.31,13.31,25.6,13.48,17.55-.54,30.57-23.61t13-57.62Q678.57,561.87,663.64,535Z"/><path class="cls-2" d="M298.83,761.58c74,116.6,219.63,173.65,357.43,129.91C820.32,839.41,911.1,664.2,859,500.15S631.74,245.31,467.68,297.38A310.33,310.33,0,0,0,307.36,414.67"/><polygon class="cls-1" points="251.87 499.9 251.14 359.84 380.81 445.21 251.87 499.9"/></svg>