<?xml version="1.0" encoding="utf-8"?>
<!-- Generator: Adobe Illustrator 25.1.0, SVG Export Plug-In . SVG Version: 6.00 Build 0)  -->
<svg version="1.1" id="Layer_1" xmlns="http://www.w3.org/2000/svg" xmlns:xlink="http://www.w3.org/1999/xlink" x="0px" y="0px"
	 viewBox="0 0 1124.8 1188.9" style="enable-background:new 0 0 1124.8 1188.9;" xml:space="preserve">
<style type="text/css">
	.st0{fill:#1F5689;}
	.st1{fill:none;stroke:#1F5689;stroke-width:45.58;stroke-miterlimit:10;}
</style>
<path class="st0" d="M491.7,703h-50.1l0.4-14.5l1.6-141.8c0.4-9.7-0.9-16.7-3.8-21.2l-32.9,10.3l-8.5-23.7l71.5-31.5h7.8l11,18.6
	l-0.5,11.6c-0.4,7.8-0.5,13.1-0.5,15.7l0.7,146.7C488.3,683.3,489.5,693.3,491.7,703z"/>
<path class="st0" d="M550,538.4c8.1-17.7,20-31.6,35.5-41.8s33.6-15.3,54.1-15.3c11.7-0.1,23.3,2.2,34.1,6.7
	c10.5,4.5,19.9,11.3,27.5,19.8c7.9,8.8,14.1,20.1,18.6,34.1s6.7,30,6.7,47.9c0,22-3.9,41.8-11.8,59.4c-7.6,17.3-20,32.1-35.7,42.6
	c-15.9,10.8-34.4,16.2-55.6,16.2c-11.2,0.1-22.2-2-32.6-6.3c-10.3-4.4-19.5-11-27.1-19.2c-8.1-8.6-14.4-20-19-34.5s-6.9-31-6.9-49.8
	C537.8,576.1,541.9,556.1,550,538.4z M663.6,535c-9.9-17.9-22.5-26.9-37.5-26.9c-11.5,0-21.1,7.4-29,22.2s-11.9,32.4-12.2,52.9
	c0.4,19.4,2.7,36.8,6.9,52.2c4.2,15.4,10.1,27.5,17.6,36.4c7.5,8.9,16.1,13.4,25.6,13.5c11.7-0.4,21.9-8.2,30.6-23.6
	s13-34.6,13-57.6C678.6,575.9,673.6,552.9,663.6,535z"/>
<path class="st1" d="M826,761.6c-74,116.6-219.6,173.6-357.4,129.9c-164-52.1-254.8-227.3-202.8-391.3s227.3-254.8,391.4-202.8
	c64.8,20.5,121.2,61.7,160.3,117.3"/>
<polygon class="st0" points="873,499.9 873.7,359.8 744,445.2 "/>
</svg>
